<svg xmlns="http://www.w3.org/2000/svg" width="177" height="30" fill="none"><path fill="#6D7D93" d="M170.798 23.96a9.56 9.56 0 0 1-1.423-2.089 9.958 9.958 0 0 0-2.443-3.097 9.81 9.81 0 0 0-6.858-2.33 3.321 3.321 0 0 1 2.316.766 3.368 3.368 0 0 1 1.181 2.147 9.958 9.958 0 0 0 2.307 4.894 9.846 9.846 0 0 0 4.514 2.945 9.844 9.844 0 0 0 6.115-.095 9.781 9.781 0 0 1-5.709-3.141zm-14.158-7.694a9.858 9.858 0 0 0 1.335 3.155 3.326 3.326 0 0 1 .758-4.454 9.82 9.82 0 0 0 3.06-4.403 9.754 9.754 0 0 0 .279-5.343A9.788 9.788 0 0 0 158.927 0a9.704 9.704 0 0 1 .128 6.492 9.515 9.515 0 0 1-1.113 2.26 9.765 9.765 0 0 0-1.353 7.53l.051-.016zm4.92 3.902a3.315 3.315 0 0 1-1.792 1.631 3.245 3.245 0 0 1-2.406-.042 9.603 9.603 0 0 0-5.301-.444 9.69 9.69 0 0 0-4.74 2.45 9.94 9.94 0 0 0-2.93 5.368 9.696 9.696 0 0 1 5.52-3.389 9.847 9.847 0 0 1 2.474-.195 9.614 9.614 0 0 0 3.828-.58 9.73 9.73 0 0 0 3.305-2.045 9.944 9.944 0 0 0 2.053-2.754h-.011zM.637 29h4.716V17.516c0-1.272.348-2.292 1.044-3.06.696-.768 1.608-1.152 2.736-1.152 1.152 0 2.064.384 2.736 1.152.696.744 1.044 1.764 1.044 3.06V29h4.716V17.516c0-1.272.348-2.292 1.044-3.06.696-.768 1.608-1.152 2.736-1.152 1.152 0 2.064.384 2.736 1.152.696.744 1.044 1.764 1.044 3.06V29h4.716V16.4c0-1.464-.324-2.748-.972-3.852-.624-1.128-1.476-2.004-2.556-2.628-1.08-.624-2.316-.936-3.708-.936-1.296 0-2.472.264-3.528.792-1.032.528-1.884 1.32-2.556 2.376-.576-.96-1.404-1.728-2.484-2.304-1.056-.576-2.244-.864-3.564-.864-1.224 0-2.316.24-3.276.72s-1.692 1.2-2.196 2.16V9.416H.637V29zm39.197.432c2.544 0 4.584-.84 6.12-2.52V29h4.465V15.968c0-1.368-.348-2.58-1.044-3.636-.697-1.056-1.657-1.872-2.88-2.448-1.2-.6-2.604-.9-4.212-.9-1.968 0-3.72.468-5.257 1.404-1.536.936-2.592 2.172-3.168 3.708l3.853 1.872a4.625 4.625 0 0 1 1.692-2.124c.767-.552 1.668-.828 2.7-.828 1.08 0 1.944.288 2.591.864.672.552 1.008 1.248 1.008 2.088v.648l-5.831.936c-2.305.384-4.009 1.116-5.113 2.196s-1.656 2.436-1.656 4.068c0 1.728.613 3.096 1.837 4.104s2.855 1.512 4.895 1.512zm-1.836-5.796c0-1.368.925-2.232 2.773-2.592l4.931-.828v.792c0 1.344-.468 2.484-1.404 3.42-.912.936-2.111 1.404-3.6 1.404-.791 0-1.44-.192-1.944-.576-.503-.408-.755-.948-.755-1.62zM54.777 29h4.716V18.092c0-1.488.408-2.64 1.224-3.456.84-.84 1.92-1.26 3.24-1.26h1.692V9.2h-1.152c-1.2 0-2.256.216-3.168.648-.912.432-1.62 1.212-2.124 2.34V9.416h-4.428V29zm22.921.216c.792 0 1.572-.06 2.34-.18v-4.068a8.123 8.123 0 0 1-1.26.108c-1.153 0-1.993-.264-2.52-.792-.528-.528-.792-1.284-.792-2.268v-8.388h4.5V9.416h-4.5V4.952H70.75v1.512c0 .96-.264 1.692-.793 2.196-.527.504-1.271.756-2.231.756h-.36v4.212h3.383v8.64c0 2.184.6 3.888 1.8 5.112 1.224 1.224 2.94 1.836 5.148 1.836zM83.64 7.22h4.717V2.18H83.64v5.04zm0 21.78h4.717V9.416H83.64V29zm9.07 0h4.717V17.516c0-1.272.36-2.292 1.08-3.06.744-.768 1.704-1.152 2.88-1.152s2.124.384 2.844 1.152c.744.744 1.116 1.764 1.116 3.06V29h4.716V16.4c0-1.464-.312-2.748-.936-3.852a6.593 6.593 0 0 0-2.628-2.628c-1.104-.624-2.376-.936-3.816-.936-1.224 0-2.328.24-3.312.72a5.156 5.156 0 0 0-2.232 2.124V9.416H92.71V29zm30.917.432c1.896 0 3.624-.432 5.184-1.296 1.56-.888 2.808-2.1 3.744-3.636.936-1.56 1.404-3.324 1.404-5.292s-.468-3.72-1.404-5.256a9.982 9.982 0 0 0-3.708-3.636c-1.56-.888-3.3-1.332-5.22-1.332-1.944 0-3.696.444-5.256 1.332-1.56.888-2.808 2.1-3.744 3.636-.912 1.536-1.368 3.288-1.368 5.256 0 1.968.456 3.72 1.368 5.256a10.261 10.261 0 0 0 3.744 3.636c1.584.888 3.336 1.332 5.256 1.332zm0-4.32c-1.056 0-2.004-.252-2.844-.756-.816-.504-1.464-1.2-1.944-2.088-.456-.912-.684-1.932-.684-3.06 0-1.128.228-2.136.684-3.024.48-.888 1.128-1.584 1.944-2.088.84-.528 1.788-.792 2.844-.792 1.056 0 1.98.264 2.772.792a5.18 5.18 0 0 1 1.908 2.088c.48.888.72 1.896.72 3.024 0 1.128-.24 2.148-.72 3.06a5.18 5.18 0 0 1-1.908 2.088c-.792.504-1.716.756-2.772.756z"/></svg>