<svg xmlns="http://www.w3.org/2000/svg" width="102" height="26" fill="none"><path fill="#080A47" d="M34.504 21.24c-1.328 0-2.456-.24-3.384-.72-.928-.48-1.76-1.184-2.496-2.112l1.872-1.872a5.367 5.367 0 0 0 1.656 1.584c.64.368 1.456.552 2.448.552.928 0 1.664-.192 2.208-.576.56-.384.84-.912.84-1.584 0-.56-.144-1.016-.432-1.368-.288-.352-.672-.64-1.152-.864a9.322 9.322 0 0 0-1.56-.624c-.56-.192-1.128-.4-1.704-.624a7.87 7.87 0 0 1-1.56-.888 3.957 3.957 0 0 1-1.128-1.368c-.288-.56-.432-1.272-.432-2.136 0-.992.24-1.832.72-2.52.496-.704 1.16-1.24 1.992-1.608.832-.368 1.76-.552 2.784-.552 1.104 0 2.088.216 2.952.648.88.432 1.592.984 2.136 1.656l-1.872 1.872c-.48-.544-.984-.944-1.512-1.2-.512-.272-1.104-.408-1.776-.408-.832 0-1.488.168-1.968.504-.464.336-.696.808-.696 1.416 0 .512.144.928.432 1.248.288.304.664.568 1.128.792.48.208 1 .408 1.56.6.576.192 1.144.408 1.704.648.576.24 1.096.552 1.56.936.48.368.864.848 1.152 1.44.288.592.432 1.336.432 2.232 0 1.504-.536 2.696-1.608 3.576-1.056.88-2.488 1.32-4.296 1.32zM50.196 21v-6.648c0-.768-.248-1.4-.744-1.896-.48-.496-1.104-.744-1.872-.744-.512 0-.968.112-1.368.336-.4.224-.712.536-.936.936-.224.4-.336.856-.336 1.368l-1.032-.576c0-.88.192-1.656.576-2.328a4.136 4.136 0 0 1 1.584-1.608c.688-.4 1.456-.6 2.304-.6.864 0 1.632.192 2.304.576.672.384 1.2.92 1.584 1.608.384.672.576 1.456.576 2.352V21h-2.64zM42.3 21V3.72h2.64V21H42.3zm17.543.24a5.25 5.25 0 0 1-2.832-.792 5.817 5.817 0 0 1-1.992-2.136c-.48-.912-.72-1.928-.72-3.048 0-1.136.24-2.152.72-3.048.496-.912 1.16-1.632 1.992-2.16a5.135 5.135 0 0 1 2.832-.816c.88 0 1.656.192 2.328.576.688.368 1.232.88 1.632 1.536.4.656.6 1.4.6 2.232v3.312c0 .832-.2 1.576-.6 2.232a4.188 4.188 0 0 1-1.608 1.56c-.688.368-1.472.552-2.352.552zm.432-2.496c.976 0 1.76-.328 2.352-.984.608-.656.912-1.496.912-2.52 0-.688-.136-1.296-.408-1.824a2.936 2.936 0 0 0-1.152-1.224c-.48-.304-1.048-.456-1.704-.456-.64 0-1.208.152-1.704.456a3.15 3.15 0 0 0-1.152 1.224c-.272.528-.408 1.136-.408 1.824 0 .688.136 1.296.408 1.824.288.528.672.944 1.152 1.248.496.288 1.064.432 1.704.432zM63.37 21v-3.096l.456-2.808-.456-2.784V9.48h2.64V21h-2.64zm5.07 0V9.48h2.64V21h-2.64zm2.64-6.408-.912-.456c0-1.456.32-2.632.96-3.528.656-.912 1.64-1.368 2.952-1.368.576 0 1.096.104 1.56.312.464.208.896.544 1.296 1.008l-1.728 1.776a1.82 1.82 0 0 0-.696-.48 2.521 2.521 0 0 0-.888-.144c-.736 0-1.344.232-1.824.696-.48.464-.72 1.192-.72 2.184zm12.801 6.648c-.88 0-1.664-.184-2.352-.552a4.368 4.368 0 0 1-1.632-1.56c-.384-.656-.576-1.4-.576-2.232v-3.312c0-.832.2-1.576.6-2.232.4-.656.944-1.168 1.632-1.536.688-.384 1.464-.576 2.328-.576 1.04 0 1.976.272 2.808.816a5.52 5.52 0 0 1 1.992 2.16c.496.896.744 1.912.744 3.048 0 1.12-.248 2.136-.744 3.048a5.565 5.565 0 0 1-1.992 2.136c-.832.528-1.768.792-2.808.792zm-.432-2.496c.64 0 1.2-.144 1.68-.432.496-.304.88-.72 1.152-1.248.288-.528.432-1.136.432-1.824 0-.688-.144-1.296-.432-1.824a2.936 2.936 0 0 0-1.152-1.224c-.48-.304-1.04-.456-1.68-.456-.64 0-1.208.152-1.704.456-.496.288-.88.696-1.152 1.224-.272.528-.408 1.136-.408 1.824 0 .688.136 1.296.408 1.824.272.528.656.944 1.152 1.248.496.288 1.064.432 1.704.432zM77.714 25.8V9.48h2.64v3.096l-.456 2.808.456 2.784V25.8h-2.64zm16.767-4.68L89.56 9.48h2.904l3.36 8.544h-.84l3.552-8.544h2.928l-5.352 11.64H94.48zm-3.432 4.68 3.576-7.368 1.488 2.688-2.136 4.68h-2.928z"/><rect width="24" height="24" fill="#3A30BA" rx="6"/><path fill="#fff" d="m12.076 19 2.378-15h2.01l-2.377 15h-2.011zM6 14.5v-1.886h11.308V14.5H6zM7.405 19 9.784 4h2.01L9.417 19h-2.01zm-.735-8.936V8.18H18v1.885H6.67z"/></svg>