<svg xmlns="http://www.w3.org/2000/svg" width="188" height="40" fill="none"><path fill="#6D7D93" d="m21.986 6.704 1.487-1.488c2.92-2.92 7.674-2.992 10.611-.089a7.498 7.498 0 0 1 1.463 8.612 3.595 3.595 0 0 0 .685 4.12 10.489 10.489 0 0 0-.02-14.838c-4.108-4.084-10.774-4.002-14.87.093L7.169 17.288l-1.165-1.166c-2.97-2.97-2.989-7.824.033-10.74a7.498 7.498 0 0 1 8.57-1.295 3.374 3.374 0 0 0 3.914-.607l.036-.036a.12.12 0 0 0 0-.17 10.49 10.49 0 0 0-14.598-.046C-.271 7.309-.256 14.098 3.9 18.253l14.17 14.17-1.505 1.505c-2.92 2.92-7.674 2.993-10.611.09a7.497 7.497 0 0 1-1.463-8.612 3.595 3.595 0 0 0-.685-4.12 10.49 10.49 0 0 0 .02 14.838c4.108 4.084 10.774 4.003 14.87-.093l14.192-14.193 1.17 1.17c2.92 2.92 2.992 7.674.089 10.611a7.498 7.498 0 0 1-8.611 1.463 3.595 3.595 0 0 0-4.122.686 10.49 10.49 0 0 0 14.838-.02c4.084-4.108 4.003-10.774-.093-14.87L21.986 6.705zm-1.8 23.602L9.285 19.404 19.869 8.82l10.902 10.902-10.585 10.584zm37.208 1.909c-2.17 0-3.828-.637-4.975-1.91-1.138-1.273-1.775-3.011-1.91-5.217l3.443-.86c.17 3.442 1.318 5.163 3.442 5.163 1.721 0 2.582-.86 2.582-2.582 0-.51-.072-.981-.215-1.412a3.574 3.574 0 0 0-.632-1.196 7.384 7.384 0 0 0-.78-.874 14.402 14.402 0 0 0-.955-.82l-4.303-3.443a6.81 6.81 0 0 1-1.896-2.353c-.466-.96-.699-2.048-.699-3.267 0-1.775.551-3.187 1.654-4.236 1.103-1.049 2.564-1.573 4.383-1.573 1.955 0 3.506.48 4.653 1.439 1.156.95 1.87 2.299 2.138 4.047.027.188.058.448.094.78l-3.442.86a12.81 12.81 0 0 0-.067-.685c-.153-1.094-.498-1.968-1.036-2.622-.529-.664-1.309-.995-2.34-.995-.824 0-1.46.233-1.909.699-.448.457-.672 1.098-.672 1.923 0 1.353.574 2.487 1.721 3.402l4.303 3.442c2.295 1.855 3.442 4.074 3.442 6.656 0 1.766-.547 3.146-1.64 4.141-1.085.995-2.546 1.493-4.384 1.493zm13.218-2.824c.905 0 1.766-.233 2.582-.7V18.043a4.793 4.793 0 0 1-.27-.161 2.679 2.679 0 0 0-.309-.175 3.776 3.776 0 0 0-.282-.161 1.933 1.933 0 0 0-.336-.148 2.243 2.243 0 0 0-.323-.108 1.928 1.928 0 0 0-.376-.094 2.483 2.483 0 0 0-.377-.027 1.46 1.46 0 0 0-.766.202 1.917 1.917 0 0 0-.538.457c-.144.18-.269.435-.377.767-.098.331-.17.627-.215.887a9.47 9.47 0 0 0-.107 1.022c-.027.421-.045.748-.054.982v3.63c.009.6.036 1.13.08 1.587.054.448.14.892.256 1.331.126.43.305.766.538 1.008.242.234.533.35.874.35zm2.582 7.745v-6.71c-.511.53-1.04.96-1.587 1.291-.538.332-1.156.498-1.856.498a3.229 3.229 0 0 1-1.775-.498 4.002 4.002 0 0 1-1.237-1.304 8.368 8.368 0 0 1-.766-1.869 14.487 14.487 0 0 1-.417-2.138c-.072-.7-.108-1.425-.108-2.178v-2.622c0-.78.036-1.493.108-2.138.072-.646.202-1.282.39-1.91.188-.627.435-1.156.74-1.586.313-.44.726-.79 1.237-1.05.51-.268 1.102-.403 1.775-.403.385 0 .744.054 1.075.162.341.098.664.26.969.484.313.224.555.421.726.591.179.162.42.404.726.727V14.76h3.442v22.375h-3.442zm8.659-4.921c-.753 0-1.358-.265-1.815-.794-.457-.537-.686-1.2-.686-1.99v-14.67h3.442v13.622c0 .358.108.65.323.874.224.224.511.336.86.336.189 0 .373-.023.552-.067.18-.045.354-.121.525-.229.179-.117.318-.206.416-.269.099-.072.238-.188.417-.35.188-.16.305-.26.35-.295V14.76h3.442v17.212h-3.442v-1.856c-.34.296-.592.511-.753.646-.153.134-.39.318-.713.551a5.04 5.04 0 0 1-.86.497 5.72 5.72 0 0 1-.915.27 4.81 4.81 0 0 1-1.143.134zm15.544-2.824c.242 0 .475-.072.7-.215a2.27 2.27 0 0 0 .524-.417c.117-.134.26-.314.43-.538a.523.523 0 0 1 .067-.094v-4.76c-.143.099-.38.251-.712.457-.332.206-.596.377-.794.511a7.054 7.054 0 0 0-.712.538 3.396 3.396 0 0 0-.646.659 3.224 3.224 0 0 0-.403.766 2.65 2.65 0 0 0-.175.955c0 1.425.574 2.138 1.721 2.138zm-1.72 2.824c-.96 0-1.776-.413-2.448-1.237-.663-.834-.995-1.77-.995-2.81 0-.834.139-1.592.417-2.273.287-.681.587-1.224.9-1.627.314-.412.839-.834 1.574-1.264.735-.44 1.29-.74 1.667-.9a83.79 83.79 0 0 1 1.963-.794c.162-.063.283-.112.363-.148v-1.237c0-.87-.12-1.542-.363-2.017-.242-.484-.694-.726-1.358-.726-.591 0-1.017.206-1.277.618-.251.404-.395.964-.43 1.681a5.328 5.328 0 0 0-.014.444h-3.442c.018-1.65.48-2.963 1.385-3.94.905-.977 2.165-1.466 3.778-1.466 1.605 0 2.864.498 3.779 1.493.923.986 1.385 2.29 1.385 3.913v7.745c0 1.793.148 3.227.443 4.303h-3.428l-.458-2.582c-.179.359-.327.637-.443.834a7.132 7.132 0 0 1-.484.74 3.33 3.33 0 0 1-.646.672 3.384 3.384 0 0 1-.807.403 3.108 3.108 0 0 1-1.062.175zm9.855-.242V14.76h3.443v2.3c.349-.682.856-1.273 1.519-1.775a3.601 3.601 0 0 1 2.232-.767c.027 0 .211.018.552.054v3.805a5.174 5.174 0 0 0-1.91-.376c-.717 0-1.295.215-1.734.645-.44.43-.659 1-.659 1.708v11.618h-3.443zm14.065.242c-.833 0-1.559-.144-2.178-.43-.61-.287-1.098-.66-1.466-1.116-.358-.467-.65-1.058-.874-1.775a12.602 12.602 0 0 1-.47-2.165 27.82 27.82 0 0 1-.148-2.528 31.51 31.51 0 0 1 0-2.26c.027-.896.085-1.689.175-2.38.098-.698.264-1.375.497-2.03.233-.654.534-1.192.901-1.613.377-.421.865-.758 1.466-1.009.609-.26 1.317-.39 2.124-.39.735 0 1.381.099 1.937.296a3.3 3.3 0 0 1 1.398.874c.376.386.686.816.928 1.291.251.475.439 1.053.565 1.735.125.672.21 1.335.255 1.99.054.654.081 1.407.081 2.259v.403h-6.885v1.412a13.07 13.07 0 0 0-.013 1.035l.053 1.036c.018.34.068.668.148.981.081.305.18.574.296.807.117.233.278.417.484.551.215.135.466.202.753.202.359 0 .655-.067.888-.202.233-.143.403-.354.511-.632.116-.277.197-.555.242-.833a7.81 7.81 0 0 0 .08-1.05v-.725h3.416v.686c-.081 1.837-.534 3.227-1.358 4.168-.825.941-2.093 1.412-3.806 1.412zm-1.694-10.569h3.416v-1.035a10.903 10.903 0 0 0-.081-1.197 5.334 5.334 0 0 0-.242-1.022c-.108-.34-.278-.6-.511-.78-.233-.18-.52-.269-.861-.269-.349 0-.645.094-.887.282-.233.189-.408.462-.525.82a6.4 6.4 0 0 0-.228 1.036c-.045.34-.072.749-.081 1.224v.941zm15.813 10.569c-2.169 0-3.828-.637-4.975-1.91-1.139-1.273-1.775-3.011-1.909-5.217l3.442-.86c.17 3.442 1.318 5.163 3.442 5.163 1.721 0 2.582-.86 2.582-2.582 0-.51-.072-.981-.215-1.412a3.58 3.58 0 0 0-.632-1.196 7.41 7.41 0 0 0-.78-.874 14.24 14.24 0 0 0-.955-.82l-4.303-3.443a6.809 6.809 0 0 1-1.896-2.353c-.466-.96-.699-2.048-.699-3.267 0-1.775.551-3.187 1.654-4.236 1.103-1.049 2.564-1.573 4.384-1.573 1.954 0 3.505.48 4.652 1.439 1.156.95 1.869 2.299 2.138 4.047.027.188.058.448.094.78l-3.442.86a13.911 13.911 0 0 0-.067-.685c-.153-1.094-.498-1.968-1.036-2.622-.529-.664-1.309-.995-2.339-.995-.825 0-1.462.233-1.91.699-.448.457-.672 1.098-.672 1.923 0 1.353.574 2.487 1.721 3.402l4.303 3.442c2.295 1.855 3.442 4.074 3.442 6.656 0 1.766-.547 3.146-1.64 4.141-1.085.995-2.546 1.493-4.384 1.493zm13.164 0c-1.353 0-2.339-.345-2.958-1.036-.61-.69-.923-1.734-.941-3.132V17.343h-1.721v-2.582h1.721V8.737h3.442v6.024h2.582v2.582h-2.582v10.045c0 .69.094 1.196.282 1.519.189.323.57.484 1.143.484.251 0 .637-.045 1.157-.134v2.796c-.861.108-1.569.162-2.125.162zm13.339-1.614c-.798 1.076-2.12 1.614-3.967 1.614-1.846 0-3.168-.538-3.966-1.614-.798-1.075-1.197-2.626-1.197-4.652v-5.164c0-2.026.399-3.576 1.197-4.652s2.12-1.614 3.966-1.614c1.847 0 3.169.538 3.967 1.614s1.197 2.627 1.197 4.652v5.164c0 2.026-.399 3.577-1.197 4.652zm-4.612-1.317a1.8 1.8 0 0 0 .645.107c.242 0 .453-.036.632-.107.189-.072.341-.157.458-.256.125-.107.228-.26.309-.457.08-.206.143-.386.188-.538a3.17 3.17 0 0 0 .094-.659c.018-.287.027-.51.027-.672.009-.17.014-.422.014-.753v-5.164c0-.331-.005-.578-.014-.74 0-.17-.009-.398-.027-.685a3.17 3.17 0 0 0-.094-.659 5.775 5.775 0 0 0-.188-.524c-.081-.206-.184-.359-.309-.457a1.402 1.402 0 0 0-.458-.27 1.696 1.696 0 0 0-.632-.107c-.242 0-.457.036-.645.108a1.615 1.615 0 0 0-.457.269c-.117.098-.215.25-.296.457a5.486 5.486 0 0 0-.188.524 3.17 3.17 0 0 0-.094.66c-.018.286-.032.514-.041.685v6.656l.041.672c.018.287.049.507.094.659.045.152.107.332.188.538.081.197.179.35.296.457.125.099.278.184.457.256zm8.633 2.689V14.76h3.442v1.856c.511-.466.928-.82 1.25-1.062.323-.251.767-.484 1.332-.7a4.976 4.976 0 0 1 1.828-.336c.735 0 1.331.27 1.789.807.457.538.685 1.197.685 1.977v14.67h-3.442V19.064c0-.6-.085-1.035-.255-1.304-.171-.278-.516-.417-1.036-.417-.296 0-.591.063-.887.188a3.002 3.002 0 0 0-.646.337 9.28 9.28 0 0 0-.618.484v13.62h-3.442zm18.206.242c-.834 0-1.56-.144-2.178-.43-.61-.287-1.098-.66-1.466-1.116-.359-.467-.65-1.058-.874-1.775a12.702 12.702 0 0 1-.471-2.165c-.08-.726-.13-1.569-.147-2.528a31.51 31.51 0 0 1 0-2.26c.026-.896.085-1.689.174-2.38a10.4 10.4 0 0 1 .498-2.03c.233-.654.533-1.192.901-1.613.376-.421.865-.758 1.465-1.009.61-.26 1.318-.39 2.125-.39.735 0 1.38.099 1.936.296a3.3 3.3 0 0 1 1.399.874c.376.386.685.816.927 1.291.251.475.44 1.053.565 1.735.126.672.211 1.335.256 1.99.053.654.08 1.407.08 2.259v.403h-6.884v1.412a13.06 13.06 0 0 0-.014 1.035l.054 1.036c.018.34.067.668.148.981.081.305.179.574.296.807.116.233.278.417.484.551.215.135.466.202.753.202.359 0 .654-.067.887-.202a1.24 1.24 0 0 0 .511-.632c.117-.277.198-.555.242-.833a7.79 7.79 0 0 0 .081-1.05v-.725h3.415v.686c-.08 1.837-.533 3.227-1.358 4.168-.824.941-2.093 1.412-3.805 1.412zm-1.694-10.569h3.415v-1.035a11.18 11.18 0 0 0-.08-1.197 5.264 5.264 0 0 0-.243-1.022c-.107-.34-.277-.6-.51-.78-.234-.18-.52-.269-.861-.269-.35 0-.645.094-.888.282-.233.189-.407.462-.524.82-.107.35-.184.695-.229 1.036-.044.34-.071.749-.08 1.224v.941z"/></svg>