<svg xmlns="http://www.w3.org/2000/svg" width="181" height="36" fill="none"><path fill="#6D7D93" d="m7.633 11.96 4.433-2.557L9.592 5.12h23.27L21.23 25.273l-2.474-4.29-4.433 2.563 6.907 11.96L41.727 0h-41l6.906 11.96zM60.116 29l8.85-21h-4.23l-6.24 15.24L52.226 8h-4.23l8.85 21h3.27zM73.97 8v21H89.6v-3.72H77.99v-5.04h9.81v-3.72h-9.81v-4.8h11.46V8H73.97zm21.398 0v21h4.02v-7.41h4.89l4.41 7.41h4.47l-4.8-8.1c2.43-1.08 3.99-3.39 3.99-6.12 0-1.92-.69-3.54-2.1-4.83-1.38-1.29-3.09-1.95-5.16-1.95h-9.72zm9.72 3.72c1.77 0 3.06 1.29 3.06 3.06s-1.29 3.09-3.06 3.09h-5.7v-6.15h5.7zm18.82 0V29h4.05V11.72h6.96V8h-17.97v3.72h6.96zM140.392 8v21h15.63v-3.72h-11.61v-5.04h9.81v-3.72h-9.81v-4.8h11.46V8h-15.48zm27.728 10.29L160.32 29h4.83l5.37-7.41 5.37 7.41h4.8l-7.77-10.71L180.39 8h-4.8l-5.07 6.99L165.45 8h-4.83l7.5 10.29z"/></svg>