<svg xmlns="http://www.w3.org/2000/svg" width="188" height="38" fill="none"><path fill="#6D7D93" d="m6.115 8.52 2.171 1.085a2.795 2.795 0 0 0 2.507-.135l2.052-1.336a2.762 2.762 0 0 0 1.14-2.236l-.13-2.447a2.78 2.78 0 0 0-1.368-2.1L10.316.238a2.778 2.778 0 0 0-2.508.13L5.757 1.703a2.773 2.773 0 0 0-1.14 2.236l.13 2.448A2.774 2.774 0 0 0 6.115 8.52zm13.095 3.169-2.17-1.113a2.783 2.783 0 0 0-2.503.136l-2.073 1.335a2.795 2.795 0 0 0-1.14 2.236l.13 2.448a2.779 2.779 0 0 0 1.368 2.1l2.171 1.086a2.77 2.77 0 0 0 2.502-.13l2.057-1.336a2.804 2.804 0 0 0 1.14-2.241l-.13-2.442a2.79 2.79 0 0 0-1.352-2.08zm6.699 10.323-2.171-1.085a2.778 2.778 0 0 0-2.508.13l-2.051 1.335a2.782 2.782 0 0 0-1.14 2.236l.13 2.448a2.789 2.789 0 0 0 1.357 2.067l2.171 1.086a2.795 2.795 0 0 0 2.507-.136l2.057-1.335a2.774 2.774 0 0 0 1.135-2.236l-.114-2.404a2.773 2.773 0 0 0-1.373-2.106z"/><path fill="#6D7D93" d="m9.913 15.933-.103-1.905a2.794 2.794 0 0 1 1.14-2.236l4-2.6a2.784 2.784 0 0 1 2.502-.135l1.704.868a2.778 2.778 0 0 0 2.507-.13l2.052-1.34a2.778 2.778 0 0 0 1.14-2.237l-.131-2.442a2.779 2.779 0 0 0-1.368-2.106L21.186.558a2.795 2.795 0 0 0-2.508.136l-2.095 1.313a2.774 2.774 0 0 0-1.134 2.236l.098 1.905a2.773 2.773 0 0 1-1.135 2.236l-4 2.6a2.778 2.778 0 0 1-2.507.13l-1.699-.863a2.778 2.778 0 0 0-2.507.13l-2.051 1.335a2.774 2.774 0 0 0-1.14 2.236l.13 2.448a2.774 2.774 0 0 0 1.368 2.106l2.17 1.085a2.795 2.795 0 0 0 2.508-.136l2.051-1.335a2.778 2.778 0 0 0 1.178-2.187zM31.398 14.1a2.802 2.802 0 0 0-1.368-2.107l-2.171-1.085a2.8 2.8 0 0 0-2.507.136L23.3 12.378a2.785 2.785 0 0 0-1.14 2.236l.104 1.91a2.784 2.784 0 0 1-1.14 2.236l-3.995 2.594a2.796 2.796 0 0 1-2.507.136l-1.704-.869a2.785 2.785 0 0 0-2.502.136l-2.073 1.33a2.796 2.796 0 0 0-1.14 2.236l.13 2.447a2.779 2.779 0 0 0 1.368 2.1l2.17 1.114a2.769 2.769 0 0 0 2.503-.13l2.057-1.336a2.8 2.8 0 0 0 1.14-2.236l-.104-1.91a2.78 2.78 0 0 1 1.14-2.236l3.994-2.6a2.778 2.778 0 0 1 2.508-.13l1.698.863a2.78 2.78 0 0 0 2.508-.13l2.057-1.336a2.778 2.778 0 0 0 1.134-2.236l-.108-2.469zm7.29-9.785h8.136L50.64 19.76l3.816-15.444h8.495l-7.74 24.768h-9.18L38.689 4.315zm32.251 25.056c-2.016 0-3.588-.648-4.716-1.944-1.128-1.296-1.692-3.06-1.692-5.292V11.047h7.632v10.764c0 .552.144.984.432 1.296.312.288.708.432 1.188.432s.972-.144 1.476-.432l.396 5.004c-.528.408-1.224.72-2.088.936-.84.216-1.716.324-2.628.324zM68.347 8.347c-1.128 0-2.088-.348-2.88-1.044-.768-.72-1.152-1.596-1.152-2.628s.408-1.896 1.224-2.592c.816-.696 1.752-1.044 2.808-1.044 1.104 0 2.052.36 2.844 1.08.816.72 1.224 1.572 1.224 2.556 0 1.056-.408 1.932-1.224 2.628a4.25 4.25 0 0 1-2.844 1.044zm9.404 2.953h7.596v3.671c.552-1.416 1.296-2.46 2.232-3.132.96-.696 2.076-1.044 3.348-1.044l1.044 5.868c-2.28 0-3.96.252-5.04.756-1.056.48-1.584 1.248-1.584 2.304v9.36h-7.596V11.3zm25.535 18.071c-2.016 0-3.816-.396-5.4-1.188-1.56-.792-2.784-1.884-3.672-3.276-.864-1.416-1.296-3.036-1.296-4.86 0-1.824.444-3.432 1.332-4.824.888-1.416 2.112-2.508 3.672-3.276 1.584-.768 3.384-1.152 5.4-1.152 2.04 0 3.84.396 5.4 1.188 1.584.768 2.808 1.848 3.672 3.24.864 1.392 1.296 3 1.296 4.824 0 1.848-.444 3.48-1.332 4.896-.864 1.392-2.088 2.484-3.672 3.276-1.56.768-3.36 1.152-5.4 1.152zm.072-5.4c.984 0 1.788-.36 2.412-1.08.648-.744.972-1.692.972-2.844s-.324-2.088-.972-2.808c-.624-.744-1.428-1.116-2.412-1.116s-1.8.372-2.448 1.116c-.624.72-.936 1.656-.936 2.808s.312 2.1.936 2.844c.648.72 1.464 1.08 2.448 1.08zm23.218 13.356c-1.32 0-2.58-.132-3.78-.396l.576-5.328c.936.144 1.8.216 2.592.216 1.488 0 2.616-.444 3.384-1.332.768-.864 1.224-2.328 1.368-4.392-1.416 1.992-3.576 2.988-6.48 2.988a8.307 8.307 0 0 1-4.392-1.224c-1.32-.816-2.376-1.92-3.168-3.312-.768-1.392-1.152-2.916-1.152-4.572 0-1.68.384-3.216 1.152-4.608.768-1.416 1.812-2.532 3.132-3.348a8.307 8.307 0 0 1 4.392-1.224c1.464 0 2.736.384 3.816 1.152 1.104.744 1.824 1.752 2.16 3.024v-4.176h7.596v13.716c0 4.2-.96 7.38-2.88 9.54-1.896 2.184-4.668 3.276-8.316 3.276zm0-13.644c.96 0 1.788-.336 2.484-1.008.696-.696 1.068-1.512 1.116-2.448v-.288c-.048-.912-.432-1.716-1.152-2.412-.696-.696-1.512-1.044-2.448-1.044-.984 0-1.824.36-2.52 1.08a3.434 3.434 0 0 0-1.044 2.52c0 .984.348 1.836 1.044 2.556a3.434 3.434 0 0 0 2.52 1.044zm22.799 5.688a8.43 8.43 0 0 1-4.392-1.224c-1.344-.84-2.424-1.968-3.24-3.384-.816-1.44-1.224-3.036-1.224-4.788 0-1.728.408-3.288 1.224-4.68.816-1.416 1.908-2.52 3.276-3.312 1.368-.792 2.82-1.188 4.356-1.188 1.248 0 2.4.348 3.456 1.044 1.08.696 1.896 1.74 2.448 3.132v-4.176h7.56v18.288h-7.56v-3.348c-1.2 2.424-3.168 3.636-5.904 3.636zm2.34-5.688c.96 0 1.776-.336 2.448-1.008.696-.696 1.068-1.512 1.116-2.448v-.288c-.048-.96-.432-1.776-1.152-2.448-.696-.672-1.5-1.008-2.412-1.008-1.008 0-1.872.36-2.592 1.08a3.434 3.434 0 0 0-1.044 2.52c0 1.008.36 1.86 1.08 2.556.72.696 1.572 1.044 2.556 1.044zM166.486 11.3h7.236v3.671c1.392-2.784 3.6-4.176 6.624-4.176 2.304 0 4.104.828 5.4 2.484 1.32 1.632 1.98 3.9 1.98 6.804v9h-7.56v-9.756c0-1.032-.228-1.824-.684-2.376-.432-.552-1.044-.828-1.836-.828-.576 0-1.14.192-1.692.576-.552.36-1.008.888-1.368 1.584-.336.696-.504 1.488-.504 2.376v8.424h-7.596V11.3z"/></svg>