<svg xmlns="http://www.w3.org/2000/svg" width="165" height="37" fill="none"><path fill="#6D7D93" d="m31.637 13.862-.022-.022a.013.013 0 0 1-.004-.005L17.776 0 3.94 13.835l-.004.005-.023.022a13.454 13.454 0 0 0 13.491 22.346c.242-.073.5-.073.741 0a13.452 13.452 0 0 0 17.308-14.466 13.453 13.453 0 0 0-3.817-7.88zM8.86 22.986a.726.726 0 0 0-.212.512 13.435 13.435 0 0 0 1.996 6.91.263.263 0 0 1-.322.381 8.072 8.072 0 0 1-2.584-13.142L17.776 7.612l10.037 10.037a8.07 8.07 0 0 1-.007 11.407 8.044 8.044 0 0 1-2.576 1.734.263.263 0 0 1-.323-.381 13.427 13.427 0 0 0 1.997-6.91.724.724 0 0 0-.213-.512l-4.748-5.036a.263.263 0 0 0-.397.33c1.844 3.338.259 8.13-2.386 10.775l-.014.014a1.949 1.949 0 0 1-2.741 0l-.013-.014c-2.645-2.644-4.23-7.437-2.386-10.773a.262.262 0 0 0-.397-.332L8.86 22.986zm56.812-11.431h4.579l-4.75 15.87h-5.233l-2.218-9.386-2.247 9.385H50.57l-4.75-15.87h4.864l2.474 11.15 2.446-11.15h5.148l2.445 11.15 2.475-11.15zM82.145 22.39c.701-.682 1.052-1.65 1.052-2.9 0-1.252-.35-2.21-1.052-2.873-.702-.683-1.508-1.024-2.418-1.024-.91 0-1.716.341-2.417 1.024-.702.682-1.053 1.65-1.053 2.9 0 1.252.351 2.22 1.053 2.902.701.663 1.507.995 2.417.995.91 0 1.716-.341 2.418-1.024zm-8.731 2.958c-1.404-1.517-2.105-3.46-2.105-5.83s.701-4.314 2.105-5.83c1.403-1.536 3.109-2.304 5.119-2.304 2.028 0 3.583.749 4.664 2.247v-2.076h4.863v15.87h-4.863V25.12c-1.176 1.668-2.75 2.502-4.721 2.502-1.972 0-3.66-.758-5.063-2.275zm16.9-13.793h5.176l3.612 11.802 3.612-11.802h5.176l-5.631 15.87h-6.314l-5.631-15.87zm26.563 16.068c-2.314 0-4.21-.74-5.688-2.218-1.479-1.498-2.219-3.48-2.219-5.944 0-2.465.73-4.427 2.19-5.887 1.479-1.46 3.384-2.19 5.717-2.19 2.332 0 4.266.72 5.801 2.161 1.536 1.441 2.304 3.442 2.304 6.001 0 .55-.038 1.062-.114 1.536h-10.921c.095.702.408 1.28.939 1.735.531.436 1.099.654 1.706.654.626 0 1.09-.057 1.394-.17.303-.133.521-.256.654-.37.152-.133.341-.342.569-.626h5.261c-.455 1.593-1.365 2.882-2.73 3.868-1.365.967-2.986 1.45-4.863 1.45zm3.043-9.584c-.076-.74-.398-1.337-.967-1.792-.569-.474-1.242-.71-2.02-.71-.777 0-1.431.236-1.962.71-.531.455-.863 1.052-.995 1.792h5.944zm13.049-6.484v2.957c1.138-2.085 2.655-3.128 4.551-3.128v4.949h-1.195c-1.119 0-1.962.265-2.531.796-.55.53-.825 1.46-.825 2.787v7.508h-4.863v-15.87h4.863zm11.627-1.792c-.549.55-1.223.825-2.019.825s-1.469-.275-2.019-.825c-.55-.55-.825-1.223-.825-2.02 0-.815.275-1.497.825-2.047.55-.55 1.223-.825 2.019-.825s1.47.275 2.019.825c.55.55.825 1.232.825 2.048 0 .796-.275 1.469-.825 2.019zm-4.436 17.661v-15.87h4.863v15.87h-4.863zm18.665-4.977c.644-.682.967-1.668.967-2.958 0-1.289-.332-2.265-.996-2.929-.663-.682-1.45-1.024-2.36-1.024-.91 0-1.697.341-2.361 1.024-.644.664-.967 1.64-.967 2.93 0 1.289.332 2.275.996 2.957.682.683 1.479 1.024 2.389 1.024.91 0 1.687-.341 2.332-1.024zm-8.276 2.93c-1.593-1.498-2.389-3.47-2.389-5.916s.796-4.399 2.389-5.859c1.592-1.479 3.564-2.218 5.915-2.218s4.314.74 5.887 2.218c1.593 1.46 2.389 3.413 2.389 5.859s-.786 4.418-2.36 5.916c-1.574 1.498-3.536 2.246-5.887 2.246-2.351 0-4.333-.748-5.944-2.246z"/></svg>