<svg xmlns="http://www.w3.org/2000/svg" width="50" height="50" fill="none"><path fill="#fff" d="M25 0a25 25 0 1 0 0 50 25 25 0 0 0 0-50zm1.667 34.6v1.883a1.666 1.666 0 1 1-3.334 0v-1.866a5.835 5.835 0 0 1-3.716-3.334 1.666 1.666 0 0 1 1.55-2.233 1.667 1.667 0 0 1 1.566.983A2.417 2.417 0 0 0 25 31.567a2.451 2.451 0 0 0 2.467-2.45A2.5 2.5 0 0 0 25 26.55a5.9 5.9 0 0 1-5.25-8.433 5.45 5.45 0 0 1 3.583-3V13.2a1.666 1.666 0 1 1 3.334 0v1.967a5.8 5.8 0 0 1 2.416 1.4A5.983 5.983 0 0 1 30.4 18.55a1.666 1.666 0 0 1-1.533 2.133 1.666 1.666 0 0 1-1.584-.95 2.85 2.85 0 0 0-.55-.8 2.5 2.5 0 0 0-1.666-.716 2.483 2.483 0 0 0-2.45 2.466 2.55 2.55 0 0 0 2.366 2.534 6.083 6.083 0 0 1 5.85 5 5.833 5.833 0 0 1-4.166 6.383z"/></svg>