<svg xmlns="http://www.w3.org/2000/svg" width="40" height="28" fill="none"><path fill="#fff" d="M.836 2.272c5.49 4.34 15.123 11.976 17.954 14.356.38.322.788.485 1.21.485.423 0 .83-.162 1.21-.482 2.833-2.383 12.466-10.019 17.956-14.359a.742.742 0 0 0 .117-1.073A3.398 3.398 0 0 0 36.667 0H3.334A3.398 3.398 0 0 0 .72 1.199a.742.742 0 0 0 .117 1.073z"/><path fill="#fff" d="M39.517 4.62a.877.877 0 0 0-.889.112C32.54 9.55 24.77 15.725 22.325 17.782c-1.372 1.156-3.276 1.156-4.652-.002C15.068 15.59 6.342 8.664 1.372 4.732a.882.882 0 0 0-.889-.112.777.777 0 0 0-.483.706v19.562C0 26.604 1.495 28 3.333 28h33.334C38.505 28 40 26.605 40 24.888V5.326a.776.776 0 0 0-.483-.706z"/></svg>