<svg xmlns="http://www.w3.org/2000/svg" width="50" height="50" fill="none"><path fill="#fff" d="M50.003 35.168v-4.983l-4.988-.528a12.62 12.62 0 0 0-1.478-3.567l3.154-3.902-3.524-3.523-3.901 3.154a12.626 12.626 0 0 0-3.567-1.479l-.528-4.988h-4.983l-.528 4.988a12.627 12.627 0 0 0-3.567 1.479l-3.902-3.154-3.523 3.523 3.154 3.902a12.62 12.62 0 0 0-1.479 3.567l-4.988.528v4.983l4.988.528a12.621 12.621 0 0 0 1.479 3.567l-3.154 3.901 3.523 3.524 3.902-3.154a12.62 12.62 0 0 0 3.567 1.478L30.188 50h4.983l.528-4.988a12.621 12.621 0 0 0 3.567-1.478l3.901 3.154 3.524-3.524-3.154-3.901a12.62 12.62 0 0 0 1.478-3.567l4.988-.528zm-17.324 3.346a5.838 5.838 0 1 1 0-11.675 5.838 5.838 0 0 1 0 11.675z"/><path fill="#fff" d="M23.142 11.16a9.854 9.854 0 0 0-1.153-2.782l2.46-3.044-2.749-2.75-3.044 2.461a9.848 9.848 0 0 0-2.783-1.153L15.461 0h-3.888l-.412 3.892a9.848 9.848 0 0 0-2.783 1.153l-3.044-2.46-2.75 2.749 2.461 3.044a9.85 9.85 0 0 0-1.153 2.783L0 11.573v3.888l3.892.412a9.847 9.847 0 0 0 1.153 2.783L2.585 21.7l2.749 2.75 3.044-2.461c.852.518 1.788.91 2.783 1.153l.412 3.892h3.888l.389-3.668-1.12-1.385 1.863-1.864 3.524-3.524 1.864-1.864 1.385 1.12 3.668-.388v-3.888l-3.892-.412zm-9.625 6.912a4.555 4.555 0 1 1 0-9.11 4.555 4.555 0 0 1 0 9.11z"/></svg>