<svg xmlns="http://www.w3.org/2000/svg" width="50" height="50" fill="none"><path fill="#fff" d="m41.285 49.571-8.546-8.545-4.143 4.143a1.463 1.463 0 0 1-2.425-.572l-8.287-24.86a1.464 1.464 0 0 1 1.853-1.852l24.86 8.287a1.463 1.463 0 0 1 .571 2.424l-4.142 4.143 8.545 8.547a1.464 1.464 0 0 1 0 2.071l-6.215 6.214a1.461 1.461 0 0 1-2.07 0zM19.043 11.719c-.81 0-1.465-.655-1.465-1.465v-8.79a1.464 1.464 0 1 1 2.93 0v8.79c0 .81-.655 1.465-1.465 1.465zm-7.25 2.146L5.578 7.649a1.464 1.464 0 1 1 2.071-2.071l6.215 6.215a1.465 1.465 0 1 1-2.07 2.072zM5.578 32.509a1.464 1.464 0 0 1 0-2.071l6.215-6.216a1.464 1.464 0 1 1 2.072 2.072l-6.216 6.215c-.572.572-1.5.572-2.071 0zm18.644-18.645a1.464 1.464 0 0 1 0-2.07l6.216-6.216a1.464 1.464 0 1 1 2.071 2.071l-6.215 6.215c-.573.573-1.5.573-2.072 0zm-13.968 6.644h-8.79a1.464 1.464 0 1 1 0-2.93h8.79a1.464 1.464 0 1 1 0 2.93z"/></svg>